<svg width="254" height="174" viewBox="0 0 254 174" fill="none" xmlns="http://www.w3.org/2000/svg">
<path d="M134.228 51.6142C125.104 51.6935 117.056 57.3705 113.777 66.0561C112.888 68.4017 112.474 70.8493 112.364 73.3592C112.342 73.7784 112.16 74.192 112.06 74.6056C111.613 74.4243 111.083 74.3393 110.73 74.0391C108.814 72.3677 107.578 70.2034 106.706 67.8068C106.601 67.5008 106.507 67.1949 106.364 66.77C106.032 66.8719 105.712 66.9513 105.409 67.0702C103.228 67.8804 100.998 68.43 98.6578 68.2374C97.0736 68.1014 96.7369 67.6821 96.9632 66.0731C97.2999 63.7218 98.299 61.6368 99.541 59.6651C99.7231 59.3705 99.9108 59.0759 100.06 58.838C98.8344 57.8011 97.5869 56.9173 96.5437 55.8181C95.6108 54.838 94.8656 53.6482 94.126 52.498C93.9217 52.1751 93.999 51.6538 93.9493 51.2232C94.3357 51.2006 94.7331 51.0873 95.103 51.1609C107.445 53.6255 119.01 45.4782 121.069 32.753C122.128 26.2261 120.208 20.5491 115.902 15.6822C113.457 12.923 110.52 11.0364 106.943 10.2432C104.012 9.59726 101.175 9.9882 98.7406 11.144C98.7406 11.144 98.7388 11.1459 98.7351 11.1497C83.3124 25.3819 80.3151 49.0193 91.4543 66.7869C91.6309 67.0702 91.8131 67.3479 91.9953 67.6255C92.4037 68.2374 92.8177 68.8379 93.2538 69.4328C93.4636 69.7218 93.6844 70.0107 93.9052 70.2997L93.9659 70.379C94.0156 70.4413 94.0597 70.5037 94.1149 70.5603C94.2805 70.7756 94.4406 70.9796 94.6117 71.1835C94.7442 71.3478 94.8767 71.5122 95.0202 71.6765C95.114 71.7898 95.2134 71.9087 95.3183 72.0277C95.4176 72.141 95.5115 72.2544 95.6108 72.362C95.7047 72.4753 95.804 72.5886 95.9089 72.6963C95.9917 72.7926 96.08 72.8889 96.1683 72.9852C96.1794 72.9966 96.1959 73.0079 96.2014 73.0249C96.3946 73.2345 96.5878 73.4442 96.781 73.6538C97.0018 73.8918 97.2281 74.124 97.46 74.3563C111.845 88.8436 134.493 90.9229 151.202 78.9002C153.421 75.9597 154.381 72.0447 153.669 67.9484C152.068 58.6793 143.562 51.5235 134.234 51.6085L134.228 51.6142Z" fill="#E7312D"/>
<path d="M160.089 16.4021C149.27 2.41345 131.739 -2.88399 115.946 1.50127C121.869 3.9092 126.511 7.94318 130.011 13.4163C132.743 17.6995 134.449 22.3228 134.852 27.3596C138.274 25.5749 141.967 24.6117 145.826 24.1868C148.845 23.8582 149.364 24.6117 148.392 27.6089C147.045 31.7618 144.76 35.2746 142.044 38.504C142.028 38.5097 142.022 38.5154 142.011 38.521C144.832 39.1896 147.526 40.419 150.098 42.0961C157.152 46.708 161.839 53.1839 163.776 61.5861C163.953 62.3623 164.102 63.1329 164.207 63.9034C171.957 49.1102 170.903 30.3851 160.084 16.3964L160.089 16.4021Z" fill="#E7312D"/>
<path d="M20.4347 145.914H16.7253V143.704C16.5597 143.908 15.8145 144.328 14.4898 144.962C13.1705 145.597 11.7464 145.914 10.2174 145.914C8.68834 145.914 7.2642 145.597 5.94495 144.962C4.62569 144.328 3.48858 143.455 2.54468 142.339C0.850067 140.379 0 138.073 0 135.427V122.962H3.70938V135.427C3.70938 137.262 4.34417 138.832 5.62479 140.141C6.89989 141.449 8.42891 142.107 10.2174 142.107C11.1778 142.107 12.0831 141.908 12.9221 141.506C13.7611 141.104 14.4787 140.554 15.0749 139.846C16.1733 138.594 16.7253 137.121 16.7253 135.427V122.962H20.4347V145.914Z" fill="#FCFCFC"/>
<path d="M45.5452 145.914H41.8358V135.121H29.394V145.914H25.6846V122.962H29.394V131.308H41.8358V122.962H45.5452V145.914Z" fill="#FCFCFC"/>
<path d="M62.2908 145.915H58.5539V126.776H50.4893V122.969H70.3499V126.776H62.2853V145.915H62.2908Z" fill="#FCFCFC"/>
<path d="M84.6031 146.265C82.4779 146.265 80.5459 145.733 78.8072 144.667C77.0684 143.602 75.6774 142.174 74.6396 140.39C73.6019 138.605 73.083 136.628 73.083 134.463C73.083 132.299 73.6019 130.299 74.6396 128.503C75.6774 126.707 77.0684 125.279 78.8072 124.214C80.5459 123.149 82.4779 122.616 84.6031 122.616C86.5737 122.616 88.3842 123.081 90.0457 124.016C91.7017 124.951 93.0596 126.209 94.1139 127.789C95.1682 129.37 95.814 131.166 96.0624 133.172L96.0845 134.463L96.0403 136.344H77.0021C77.234 137.818 78.062 139.206 79.4972 140.509C80.9323 141.812 82.638 142.458 84.6086 142.458C86.5792 142.458 88.3732 141.687 90.1285 140.152L92.7173 142.854C91.3429 144.095 90.0071 144.973 88.7209 145.489C87.4348 146.005 86.0603 146.265 84.6086 146.265H84.6031ZM92.2095 132.531C91.9777 131.075 91.1497 129.693 89.7145 128.378C88.2793 127.07 86.5737 126.412 84.6086 126.412C82.6435 126.412 80.9323 127.07 79.4972 128.378C78.062 129.687 77.2285 131.07 77.0021 132.531H92.215H92.2095Z" fill="#FCFCFC"/>
<path d="M103.78 156.969H100.07C100.07 141.655 100.087 133.774 100.114 133.337C100.313 131.315 100.937 129.49 101.991 127.87C103.046 126.25 104.409 124.958 106.081 124C107.754 123.043 109.592 122.567 111.59 122.567C113.716 122.567 115.648 123.099 117.386 124.165C119.125 125.23 120.516 126.658 121.554 128.442C122.592 130.227 123.11 132.21 123.11 134.391C123.11 136.573 122.592 138.556 121.554 140.34C120.516 142.125 119.125 143.553 117.386 144.618C115.648 145.683 113.716 146.216 111.59 146.216C109.774 146.216 108.091 145.813 106.54 145.014C104.989 144.216 104.067 143.638 103.78 143.275V156.963V156.969ZM111.59 142.414C113.026 142.414 114.334 142.051 115.521 141.332C116.702 140.612 117.646 139.643 118.352 138.425C119.053 137.213 119.407 135.864 119.407 134.391C119.407 132.918 119.053 131.575 118.352 130.357C117.651 129.145 116.707 128.176 115.521 127.451C114.339 126.731 113.026 126.369 111.59 126.369C110.155 126.369 108.847 126.731 107.66 127.451C106.479 128.17 105.535 129.139 104.828 130.357C104.127 131.575 103.774 132.918 103.774 134.391C103.774 135.864 104.127 137.207 104.828 138.425C105.53 139.638 106.473 140.607 107.66 141.332C108.841 142.051 110.155 142.414 111.59 142.414Z" fill="#FCFCFC"/>
<path d="M138.605 145.915C136.866 145.915 135.249 145.541 133.759 144.787C132.268 144.034 131.004 143.008 129.967 141.705C128.272 139.62 127.422 137.201 127.422 134.442V123.342C127.422 122.277 127.56 121.252 127.836 120.26C128.769 117.076 130.629 114.714 133.428 113.161C135.017 112.3 136.739 111.869 138.605 111.869C139.643 111.869 140.62 111.665 141.525 111.258C142.436 110.85 143.391 110.119 144.401 109.071L146.896 111.915C145.798 113.025 144.749 113.852 143.755 114.385C142.182 115.246 140.465 115.677 138.6 115.677C137.225 115.677 135.972 116.022 134.841 116.714C133.709 117.405 132.809 118.328 132.136 119.49C131.462 120.651 131.126 121.937 131.126 123.348V125.722C131.418 125.376 132.324 124.833 133.853 124.09C135.382 123.348 136.96 122.974 138.594 122.974C140.123 122.974 141.558 123.275 142.9 123.869C144.241 124.464 145.428 125.28 146.449 126.317C147.503 127.399 148.32 128.651 148.9 130.068C149.479 131.484 149.772 132.946 149.772 134.453C149.772 136.555 149.27 138.476 148.26 140.215C147.249 141.954 145.903 143.342 144.202 144.379C142.508 145.416 140.637 145.932 138.589 145.932L138.605 145.915ZM138.605 142.107C139.98 142.107 141.227 141.762 142.353 141.071C143.474 140.379 144.374 139.456 145.047 138.294C145.72 137.133 146.057 135.847 146.057 134.436C146.057 133.025 145.715 131.784 145.036 130.629C144.357 129.467 143.452 128.538 142.32 127.83C141.189 127.122 139.952 126.77 138.611 126.77C137.269 126.77 136.005 127.122 134.874 127.818C133.742 128.515 132.837 129.45 132.158 130.617C131.479 131.784 131.137 133.059 131.137 134.436C131.137 135.813 131.473 137.133 132.147 138.294C132.82 139.456 133.72 140.379 134.852 141.071C135.983 141.762 137.236 142.107 138.611 142.107H138.605Z" fill="#E7312D"/>
<path d="M175.053 145.914H171.344V143.704C171.178 143.908 170.433 144.328 169.108 144.962C167.789 145.597 166.365 145.914 164.836 145.914C163.307 145.914 161.882 145.597 160.563 144.962C159.244 144.328 158.107 143.455 157.163 142.339C155.468 140.379 154.618 138.073 154.618 135.427V122.962H158.328V135.427C158.328 137.262 158.968 138.832 160.243 140.141C161.518 141.449 163.047 142.107 164.836 142.107C165.796 142.107 166.701 141.908 167.54 141.506C168.379 141.104 169.097 140.554 169.693 139.846C170.792 138.594 171.344 137.121 171.344 135.427V122.962H175.053V145.914Z" fill="#E7312D"/>
<path d="M200.826 145.892H197.117V126.753H194.462C193.071 126.787 191.818 127.144 190.703 127.824C189.588 128.504 188.699 129.422 188.036 130.578C187.374 131.728 187.037 133.014 187.037 134.425C187.037 135.507 187.043 136.26 187.059 136.697C187.076 137.127 187.081 137.541 187.081 137.932C187.081 138.838 187.004 139.852 186.85 140.963C186.695 142.073 186.11 143.156 185.083 144.209C184.52 144.759 183.869 145.184 183.135 145.479C183.074 145.496 182.936 145.53 182.721 145.586C182.505 145.643 182.268 145.705 182.009 145.773C181.749 145.841 181.175 145.886 180.292 145.903V142.096C181.363 142.096 182.13 141.852 182.605 141.365C183.08 140.878 183.317 140.317 183.317 139.671V134.425C183.317 131.666 184.156 129.246 185.84 127.161C186.712 126.079 187.733 125.195 188.909 124.504C190.603 123.467 192.469 122.952 194.5 122.952H200.826V145.903V145.892Z" fill="#E7312D"/>
<path d="M226.394 145.914H222.684V143.704C222.519 143.908 221.774 144.328 220.449 144.962C219.129 145.597 217.705 145.914 216.176 145.914C214.647 145.914 213.223 145.597 211.904 144.962C210.585 144.328 209.448 143.455 208.504 142.339C206.809 140.379 205.959 138.073 205.959 135.427V122.962H209.668V135.427C209.668 137.262 210.309 138.832 211.584 140.141C212.859 141.449 214.388 142.107 216.176 142.107C217.137 142.107 218.042 141.908 218.881 141.506C219.72 141.104 220.438 140.554 221.034 139.846C222.132 138.594 222.684 137.121 222.684 135.427V122.962H226.394V145.914Z" fill="#E7312D"/>
<path d="M254 145.914H250.263V129.806L242.816 140.084L235.348 129.806V145.914H231.639V122.962H235.028L242.816 133.71L250.605 122.962H253.994V145.914H254Z" fill="#E7312D"/>
<path d="M151.517 169.585C150.855 169.585 150.236 169.455 149.657 169.2C149.077 168.94 148.509 168.52 147.951 167.942L149.039 166.826C149.458 167.274 149.867 167.58 150.258 167.755C150.65 167.931 151.07 168.016 151.517 168.016C152.328 168.016 153.029 167.75 153.626 167.211C154.222 166.673 154.564 166.107 154.658 165.495H149.27V163.925H154.647C154.553 163.319 154.211 162.747 153.62 162.209C153.029 161.67 152.328 161.404 151.517 161.404C151.07 161.404 150.65 161.495 150.264 161.67C149.872 161.846 149.464 162.158 149.039 162.594L147.951 161.478C148.52 160.894 149.088 160.475 149.668 160.22C150.247 159.965 150.866 159.835 151.517 159.835C152.389 159.835 153.19 160.056 153.907 160.492C154.625 160.928 155.199 161.517 155.624 162.26C156.049 162.996 156.264 163.812 156.264 164.707C156.264 165.602 156.049 166.424 155.624 167.155C155.193 167.891 154.625 168.481 153.907 168.917C153.19 169.353 152.395 169.574 151.517 169.574V169.585Z" fill="#FCFCFC"/>
<path d="M159.442 173.994H157.913C157.913 167.688 157.919 164.441 157.93 164.26C158.012 163.427 158.272 162.679 158.702 162.011C159.139 161.342 159.696 160.81 160.386 160.419C161.076 160.028 161.832 159.829 162.655 159.829C163.527 159.829 164.327 160.05 165.045 160.487C165.762 160.923 166.336 161.512 166.762 162.249C167.187 162.985 167.402 163.801 167.402 164.696C167.402 165.591 167.187 166.413 166.762 167.144C166.331 167.88 165.762 168.47 165.045 168.906C164.327 169.342 163.532 169.563 162.655 169.563C161.904 169.563 161.214 169.399 160.574 169.07C159.933 168.742 159.558 168.504 159.437 168.351V173.988L159.442 173.994ZM162.66 167.999C163.251 167.999 163.792 167.852 164.278 167.552C164.763 167.257 165.155 166.855 165.442 166.356C165.729 165.858 165.878 165.302 165.878 164.696C165.878 164.09 165.735 163.535 165.442 163.036C165.155 162.538 164.763 162.135 164.278 161.841C163.792 161.546 163.251 161.393 162.66 161.393C162.07 161.393 161.529 161.54 161.043 161.841C160.557 162.141 160.165 162.538 159.878 163.036C159.591 163.535 159.442 164.09 159.442 164.696C159.442 165.302 159.586 165.858 159.878 166.356C160.165 166.855 160.557 167.257 161.043 167.552C161.529 167.846 162.07 167.999 162.66 167.999Z" fill="#FCFCFC"/>
<path d="M177.438 169.439C176.411 169.439 175.55 169.223 174.855 168.798C174.159 168.374 173.602 167.801 173.182 167.087C172.763 166.374 172.559 165.643 172.547 164.895C172.321 164.968 171.797 165.002 170.98 165.002L170.704 164.991V169.439H169.175V159.988H170.704V163.427H171.731C172.299 163.427 172.812 163.286 173.271 163.002C173.734 162.719 174.104 162.34 174.38 161.858C174.656 161.382 174.794 160.759 174.794 159.988H176.334C176.334 161.314 175.986 162.408 175.285 163.269C174.899 163.739 174.502 164.096 174.076 164.334L174.088 164.702C174.088 165.291 174.226 165.824 174.502 166.3C174.778 166.776 175.147 167.161 175.617 167.444C176.08 167.728 176.687 167.869 177.427 167.869V169.439H177.438Z" fill="#FCFCFC"/>
<path d="M187.345 169.438H185.816V168.526C185.744 168.611 185.441 168.781 184.894 169.041C184.348 169.302 183.763 169.432 183.134 169.432C182.504 169.432 181.919 169.302 181.373 169.041C180.826 168.781 180.363 168.418 179.971 167.959C179.27 167.155 178.922 166.203 178.922 165.109V159.976H180.451V165.109C180.451 165.863 180.716 166.515 181.24 167.053C181.765 167.591 182.394 167.863 183.134 167.863C183.531 167.863 183.901 167.784 184.249 167.614C184.596 167.449 184.889 167.223 185.137 166.934C185.59 166.418 185.816 165.812 185.816 165.115V159.982H187.345V169.432V169.438Z" fill="#FCFCFC"/>
<path d="M197.684 169.439H196.155V164.991H191.033V169.439H189.504V159.988H191.033V163.427H196.155V159.988H197.684V169.439Z" fill="#FCFCFC"/>
<path d="M204.33 173.994C203.729 173.994 203.16 173.887 202.625 173.666C202.095 173.445 201.548 173.071 200.996 172.544L202.084 171.439C202.79 172.096 203.535 172.425 204.33 172.425C204.899 172.425 205.412 172.283 205.87 172C206.328 171.717 206.704 171.337 206.98 170.856C207.256 170.38 207.394 169.853 207.394 169.275V168.289C207.085 168.555 206.654 168.81 206.102 169.054C205.55 169.297 204.959 169.422 204.33 169.422C203.701 169.422 203.099 169.297 202.547 169.054C201.995 168.81 201.504 168.47 201.084 168.045C200.179 167.116 199.727 166 199.727 164.697C199.727 163.83 199.936 163.043 200.35 162.323C200.764 161.603 201.322 161.037 202.017 160.606C202.713 160.181 203.486 159.966 204.336 159.966C205.053 159.966 205.716 160.119 206.334 160.431C206.947 160.742 207.465 161.162 207.896 161.7C208.222 162.113 208.481 162.572 208.663 163.082C208.851 163.586 208.939 164.125 208.939 164.697V169.28C208.939 169.711 208.879 170.142 208.763 170.561C208.465 171.586 207.913 172.419 207.09 173.048C206.273 173.683 205.357 174 204.336 174L204.33 173.994ZM204.33 167.853C204.783 167.853 205.208 167.756 205.6 167.569C205.992 167.382 206.334 167.122 206.626 166.788C206.809 166.601 206.974 166.34 207.129 166.006C207.311 165.598 207.405 165.162 207.405 164.697C207.405 164.113 207.267 163.586 206.991 163.111C206.715 162.635 206.345 162.249 205.881 161.966C205.418 161.683 204.904 161.541 204.341 161.541C203.778 161.541 203.259 161.683 202.796 161.966C202.332 162.249 201.957 162.629 201.681 163.111C201.405 163.586 201.267 164.119 201.267 164.697C201.267 165.162 201.36 165.598 201.548 166.006C201.692 166.34 201.857 166.601 202.05 166.788C202.337 167.122 202.68 167.382 203.072 167.569C203.464 167.756 203.889 167.853 204.347 167.853H204.33Z" fill="#FCFCFC"/>
<path d="M219.322 169.438H217.793V168.526C217.721 168.611 217.417 168.781 216.871 169.041C216.325 169.302 215.739 169.432 215.11 169.432C214.481 169.432 213.896 169.302 213.349 169.041C212.803 168.781 212.339 168.418 211.947 167.959C211.246 167.155 210.898 166.203 210.898 165.109V159.976H212.427V165.109C212.427 165.863 212.692 166.515 213.217 167.053C213.741 167.591 214.37 167.863 215.11 167.863C215.508 167.863 215.877 167.784 216.225 167.614C216.573 167.449 216.865 167.223 217.114 166.934C217.566 166.418 217.793 165.812 217.793 165.115V159.982H219.322V169.432V169.438Z" fill="#FCFCFC"/>
<path d="M229.738 169.439C228.711 169.439 227.85 169.223 227.155 168.798C226.459 168.374 225.902 167.801 225.482 167.087C225.063 166.374 224.858 165.643 224.847 164.895C224.621 164.968 224.097 165.002 223.28 165.002L223.004 164.991V169.439H221.475V159.988H223.004V163.427H224.03C224.599 163.427 225.112 163.286 225.57 163.002C226.034 162.719 226.404 162.34 226.68 161.858C226.956 161.382 227.094 160.759 227.094 159.988H228.634C228.634 161.314 228.286 162.408 227.585 163.269C227.199 163.739 226.801 164.096 226.376 164.334L226.387 164.702C226.387 165.291 226.525 165.824 226.801 166.3C227.077 166.776 227.447 167.161 227.916 167.444C228.38 167.728 228.987 167.869 229.727 167.869V169.439H229.738Z" fill="#FCFCFC"/>
<path d="M239.487 169.439C238.46 169.439 237.599 169.223 236.904 168.798C236.208 168.374 235.651 167.801 235.231 167.087C234.812 166.374 234.607 165.643 234.596 164.895C234.37 164.968 233.846 165.002 233.029 165.002L232.753 164.991V169.439H231.224V159.988H232.753V163.427H233.779C234.348 163.427 234.861 163.286 235.319 163.002C235.783 162.719 236.153 162.34 236.429 161.858C236.705 161.382 236.843 160.759 236.843 159.988H238.383C238.383 161.314 238.035 162.408 237.334 163.269C236.948 163.739 236.55 164.096 236.125 164.334L236.136 164.702C236.136 165.291 236.274 165.824 236.55 166.3C236.826 166.776 237.196 167.161 237.665 167.444C238.129 167.728 238.736 167.869 239.476 167.869V169.439H239.487Z" fill="#FCFCFC"/>
<path d="M245.725 169.586C244.853 169.586 244.052 169.365 243.34 168.929C242.628 168.493 242.049 167.904 241.624 167.167C241.193 166.43 240.983 165.615 240.983 164.725C240.983 163.836 241.199 163.008 241.624 162.272C242.049 161.535 242.623 160.946 243.34 160.504C244.058 160.062 244.853 159.847 245.725 159.847C246.536 159.847 247.282 160.04 247.966 160.425C248.651 160.81 249.208 161.326 249.639 161.977C250.075 162.629 250.34 163.371 250.439 164.193L250.45 164.725L250.433 165.501H242.59C242.684 166.108 243.026 166.68 243.616 167.218C244.207 167.756 244.908 168.023 245.719 168.023C246.531 168.023 247.271 167.705 247.994 167.071L249.059 168.187C248.49 168.697 247.944 169.059 247.414 169.269C246.884 169.484 246.316 169.586 245.719 169.586H245.725ZM248.86 163.932C248.766 163.331 248.424 162.759 247.834 162.221C247.243 161.683 246.542 161.411 245.731 161.411C244.919 161.411 244.218 161.683 243.627 162.221C243.037 162.759 242.695 163.331 242.601 163.932H248.866H248.86Z" fill="#FCFCFC"/>
<path d="M253.049 169.438C252.784 169.438 252.558 169.342 252.376 169.155C252.188 168.962 252.1 168.735 252.1 168.463C252.1 168.191 252.193 167.959 252.376 167.772C252.563 167.58 252.784 167.489 253.049 167.489C253.314 167.489 253.54 167.585 253.722 167.772C253.91 167.965 253.998 168.191 253.998 168.463C253.998 168.735 253.905 168.968 253.722 169.155C253.535 169.347 253.314 169.438 253.049 169.438ZM253.811 166.735H252.282V154.622H253.811V166.735Z" fill="#FCFCFC"/>
</svg>
