<svg width="166" height="111" viewBox="0 0 166 111" fill="none" xmlns="http://www.w3.org/2000/svg">
<path d="M87.6957 33.1045C81.7684 33.1548 76.5403 36.7477 74.4104 42.2447C73.833 43.7292 73.5641 45.2783 73.4924 46.8668C73.4781 47.1321 73.3597 47.3939 73.2952 47.6557C73.0047 47.5409 72.6605 47.4871 72.431 47.2971C71.1867 46.2393 70.3835 44.8695 69.817 43.3527C69.7488 43.1591 69.6879 42.9655 69.5946 42.6965C69.3795 42.7611 69.1715 42.8113 68.9743 42.8866C67.5579 43.3993 66.1093 43.7472 64.5889 43.6252C63.5598 43.5392 63.341 43.2738 63.4881 42.2555C63.7068 40.7674 64.3558 39.4478 65.1626 38.2C65.2809 38.0135 65.4029 37.827 65.4997 37.6764C64.7036 37.0202 63.8932 36.4608 63.2155 35.7652C62.6095 35.1449 62.1255 34.3918 61.645 33.6639C61.5123 33.4595 61.5625 33.1297 61.5302 32.8571C61.7812 32.8428 62.0394 32.7711 62.2796 32.8177C70.2975 34.3775 77.8097 29.2211 79.1472 21.1675C79.8357 17.0366 78.5878 13.4437 75.7909 10.3635C74.2024 8.61722 72.2947 7.42316 69.9712 6.92115C68.0671 6.51237 66.224 6.75978 64.6427 7.49129C64.6427 7.49129 64.6415 7.49248 64.6391 7.49487C54.6204 16.5024 52.6733 31.4623 59.9094 42.7073C60.0242 42.8866 60.1425 43.0623 60.2608 43.238C60.5262 43.6252 60.7951 44.0053 61.0784 44.3818C61.2147 44.5647 61.3581 44.7476 61.5015 44.9305L61.541 44.9807C61.5732 45.0201 61.6019 45.0596 61.6378 45.0954C61.7454 45.2317 61.8493 45.3608 61.9605 45.4899C62.0466 45.5938 62.1326 45.6978 62.2259 45.8018C62.2868 45.8735 62.3514 45.9488 62.4195 46.0241C62.484 46.0959 62.545 46.1676 62.6095 46.2357C62.6705 46.3074 62.735 46.3791 62.8032 46.4473C62.857 46.5082 62.9143 46.5692 62.9717 46.6301C62.9789 46.6373 62.9896 46.6445 62.9932 46.6552C63.1187 46.7879 63.2442 46.9206 63.3697 47.0533C63.5132 47.2039 63.6602 47.3509 63.8108 47.4979C73.1553 56.6668 87.8678 57.9827 98.722 50.3737C100.163 48.5127 100.787 46.0349 100.325 43.4424C99.285 37.576 93.7593 33.0472 87.6993 33.101L87.6957 33.1045Z" fill="#E7312D"/>
<path d="M104.495 10.8192C97.4667 1.96593 86.0783 -1.38678 75.8193 1.38862C79.6669 2.91258 82.6825 5.46566 84.9559 8.92953C86.7309 11.6404 87.8389 14.5664 88.1007 17.7541C90.3238 16.6246 92.7227 16.015 95.2292 15.7461C97.1906 15.5381 97.5277 16.015 96.8966 17.9119C96.0216 20.5403 94.5371 22.7635 92.7729 24.8074C92.7622 24.811 92.7586 24.8146 92.7514 24.8181C94.5837 25.2413 96.3336 26.0194 98.0046 27.0808C102.587 29.9996 105.632 34.0982 106.89 39.4159C107.005 39.9071 107.102 40.3948 107.17 40.8825C112.204 31.52 111.519 19.669 104.491 10.8156L104.495 10.8192Z" fill="#E7312D"/>
<path d="M13.7746 92.7863H11.3649V91.3878C11.2574 91.5169 10.7733 91.7823 9.91269 92.1839C9.05569 92.5855 8.13055 92.7863 7.13729 92.7863C6.14403 92.7863 5.21889 92.5855 4.36189 92.1839C3.50489 91.7823 2.76622 91.23 2.15305 90.5236C1.05221 89.283 0.5 87.8235 0.5 86.149V78.2603H2.90965V86.149C2.90965 87.3108 3.32201 88.304 4.15392 89.1324C4.98223 89.9607 5.9755 90.3766 7.13729 90.3766C7.76122 90.3766 8.34929 90.2511 8.89433 89.9965C9.43936 89.7419 9.90552 89.3941 10.2928 88.9459C11.0064 88.1534 11.3649 87.2211 11.3649 86.149V78.2603H13.7746V92.7863Z" fill="#272727"/>
<path d="M30.0862 92.7863H27.6766V85.9554H19.5942V92.7863H17.1846V78.2603H19.5942V83.5421H27.6766V78.2603H30.0862V92.7863Z" fill="#272727"/>
<path d="M40.9652 92.7866H38.5377V80.6738H33.2988V78.2642H46.2005V80.6738H40.9617V92.7866H40.9652Z" fill="#272727"/>
<path d="M55.4591 93.0086C54.0786 93.0086 52.8236 92.6715 51.6941 91.9974C50.5645 91.3233 49.6609 90.4196 48.9868 89.2901C48.3127 88.1606 47.9756 86.9092 47.9756 85.5394C47.9756 84.1696 48.3127 82.9038 48.9868 81.7671C49.6609 80.6304 50.5645 79.7268 51.6941 79.0527C52.8236 78.3786 54.0786 78.0415 55.4591 78.0415C56.7393 78.0415 57.9154 78.3355 58.9947 78.9272C60.0704 79.5188 60.9525 80.3149 61.6374 81.3153C62.3223 82.3158 62.7419 83.4525 62.9032 84.7218L62.9176 85.5394L62.8889 86.7299H50.5215C50.6721 87.6622 51.21 88.5407 52.1423 89.3654C53.0746 90.1901 54.1826 90.5989 55.4627 90.5989C56.7428 90.5989 57.9082 90.1113 59.0485 89.1395L60.7302 90.8499C59.8374 91.6352 58.9696 92.191 58.1341 92.5173C57.2986 92.8436 56.4058 93.0086 55.4627 93.0086H55.4591ZM60.4003 84.3166C60.2497 83.3951 59.7119 82.5201 58.7796 81.6882C57.8473 80.8599 56.7392 80.444 55.4627 80.444C54.1862 80.444 53.0746 80.8599 52.1423 81.6882C51.21 82.5166 50.6685 83.3915 50.5215 84.3166H60.4039H60.4003Z" fill="#272727"/>
<path d="M67.9165 99.7829H65.5068C65.5068 90.0905 65.5176 85.1027 65.5355 84.8266C65.6646 83.5465 66.0698 82.3918 66.7547 81.3663C67.4396 80.3408 68.3253 79.5232 69.4118 78.9172C70.4982 78.3112 71.6923 78.01 72.9904 78.01C74.3709 78.01 75.6259 78.3471 76.7554 79.0212C77.885 79.6953 78.7886 80.5989 79.4627 81.7285C80.1368 82.858 80.4739 84.113 80.4739 85.4935C80.4739 86.8741 80.1368 88.1291 79.4627 89.2586C78.7886 90.3881 77.885 91.2918 76.7554 91.9659C75.6259 92.64 74.3709 92.9771 72.9904 92.9771C71.8107 92.9771 70.717 92.7225 69.7094 92.2169C68.7018 91.7113 68.1029 91.3455 67.9165 91.1161V99.7793V99.7829ZM72.9904 90.571C73.9227 90.571 74.7725 90.3415 75.5435 89.8861C76.3108 89.4307 76.924 88.8176 77.383 88.0466C77.8384 87.2793 78.0678 86.4258 78.0678 85.4935C78.0678 84.5612 77.8384 83.7114 77.383 82.9405C76.9276 82.1731 76.3144 81.5599 75.5435 81.101C74.7761 80.6456 73.9227 80.4161 72.9904 80.4161C72.0581 80.4161 71.2082 80.6456 70.4373 81.101C69.6699 81.5564 69.0568 82.1695 68.5978 82.9405C68.1424 83.7114 67.9129 84.5612 67.9129 85.4935C67.9129 86.4258 68.1424 87.2757 68.5978 88.0466C69.0532 88.814 69.6663 89.4272 70.4373 89.8861C71.2046 90.3415 72.0581 90.571 72.9904 90.571Z" fill="#272727"/>
<path d="M90.5392 92.7866C89.4097 92.7866 88.3591 92.55 87.3909 92.0731C86.4227 91.5961 85.6016 90.9471 84.9275 90.1224C83.8266 88.8028 83.2744 87.2717 83.2744 85.5254V78.5009C83.2744 77.8267 83.3641 77.1777 83.5433 76.5502C84.1493 74.535 85.3578 73.0397 87.1758 72.0572C88.2085 71.5122 89.3272 71.2396 90.5392 71.2396C91.2133 71.2396 91.848 71.1106 92.4361 70.8524C93.0278 70.5942 93.6481 70.1316 94.3043 69.4683L95.9251 71.2683C95.2115 71.9711 94.5302 72.4947 93.8848 72.8317C92.8628 73.3768 91.7476 73.6493 90.5356 73.6493C89.6428 73.6493 88.8288 73.868 88.0937 74.3055C87.3586 74.743 86.7741 75.3274 86.3367 76.0625C85.8992 76.7976 85.6805 77.6116 85.6805 78.5044V80.0069C85.8705 79.7882 86.4586 79.4439 87.4519 78.9742C88.4451 78.5044 89.4707 78.2678 90.532 78.2678C91.5253 78.2678 92.4576 78.4578 93.329 78.8343C94.2003 79.2108 94.9712 79.7272 95.6346 80.3834C96.3195 81.0683 96.8502 81.8607 97.2267 82.7572C97.6032 83.6536 97.7933 84.5788 97.7933 85.5326C97.7933 86.8629 97.467 88.0785 96.8108 89.1793C96.1546 90.2802 95.2796 91.1587 94.1752 91.8149C93.0744 92.4711 91.8588 92.7974 90.5285 92.7974L90.5392 92.7866ZM90.5392 90.377C91.4321 90.377 92.2425 90.1583 92.974 89.7208C93.7019 89.2833 94.2864 88.6988 94.7238 87.9637C95.1613 87.2287 95.38 86.4147 95.38 85.5218C95.38 84.629 95.1577 83.8437 94.7167 83.1122C94.2756 82.3771 93.6875 81.789 92.9524 81.3408C92.2174 80.8926 91.4141 80.6703 90.5428 80.6703C89.6715 80.6703 88.8503 80.8926 88.1152 81.3336C87.3801 81.7747 86.7921 82.3663 86.351 83.105C85.91 83.8437 85.6877 84.6505 85.6877 85.5218C85.6877 86.3932 85.9064 87.2287 86.3438 87.9637C86.7813 88.6988 87.3658 89.2833 88.1009 89.7208C88.836 90.1583 89.6499 90.377 90.5428 90.377H90.5392Z" fill="#E7312D"/>
<path d="M114.216 92.7863H111.806V91.3878C111.699 91.5169 111.215 91.7823 110.354 92.1839C109.497 92.5855 108.572 92.7863 107.579 92.7863C106.585 92.7863 105.66 92.5855 104.803 92.1839C103.946 91.7823 103.208 91.23 102.594 90.5236C101.494 89.283 100.941 87.8235 100.941 86.149V78.2603H103.351V86.149C103.351 87.3108 103.767 88.304 104.595 89.1324C105.424 89.9607 106.417 90.3766 107.579 90.3766C108.203 90.3766 108.791 90.2511 109.336 89.9965C109.881 89.7419 110.347 89.3941 110.734 88.9459C111.448 88.1534 111.806 87.2211 111.806 86.149V78.2603H114.216V92.7863Z" fill="#E7312D"/>
<path d="M130.958 92.7725H128.549V80.6597H126.824C125.92 80.6812 125.106 80.9071 124.382 81.3374C123.658 81.7677 123.08 82.3486 122.65 83.0801C122.22 83.808 122.001 84.622 122.001 85.5149C122.001 86.1998 122.005 86.6767 122.015 86.9528C122.026 87.2253 122.03 87.4871 122.03 87.7345C122.03 88.3082 121.979 88.9501 121.879 89.6529C121.779 90.3557 121.399 91.0406 120.732 91.7075C120.366 92.0554 119.943 92.3243 119.466 92.5107C119.426 92.5215 119.337 92.543 119.197 92.5789C119.057 92.6147 118.903 92.6542 118.734 92.6972C118.566 92.7402 118.193 92.7689 117.619 92.7797V90.37C118.315 90.37 118.813 90.2158 119.122 89.9075C119.43 89.5991 119.584 89.2441 119.584 88.8353V85.5149C119.584 83.7686 120.129 82.2375 121.223 80.9179C121.789 80.233 122.453 79.6736 123.217 79.2362C124.317 78.58 125.529 78.2537 126.849 78.2537H130.958V92.7797V92.7725Z" fill="#E7312D"/>
<path d="M147.568 92.7863H145.158V91.3878C145.05 91.5169 144.566 91.7823 143.706 92.1839C142.849 92.5855 141.924 92.7863 140.93 92.7863C139.937 92.7863 139.012 92.5855 138.155 92.1839C137.298 91.7823 136.559 91.23 135.946 90.5236C134.845 89.283 134.293 87.8235 134.293 86.149V78.2603H136.703V86.149C136.703 87.3108 137.119 88.304 137.947 89.1324C138.775 89.9607 139.768 90.3766 140.93 90.3766C141.554 90.3766 142.142 90.2511 142.687 89.9965C143.232 89.7419 143.698 89.3941 144.086 88.9459C144.799 88.1534 145.158 87.2211 145.158 86.149V78.2603H147.568V92.7863Z" fill="#E7312D"/>
<path d="M165.501 92.7863H163.073V82.5919L158.236 89.0965L153.384 82.5919V92.7863H150.975V78.2603H153.176L158.236 85.0625L163.295 78.2603H165.497V92.7863H165.501Z" fill="#E7312D"/>
<path d="M98.9268 107.768C98.4965 107.768 98.0949 107.685 97.7184 107.524C97.3419 107.359 96.9725 107.094 96.6104 106.728L97.3168 106.022C97.5893 106.305 97.8546 106.498 98.1092 106.61C98.3638 106.721 98.6363 106.775 98.9268 106.775C99.4539 106.775 99.9093 106.606 100.297 106.265C100.684 105.925 100.906 105.566 100.967 105.179H97.4674V104.186H100.96C100.899 103.802 100.677 103.44 100.293 103.099C99.9093 102.758 99.4539 102.59 98.9268 102.59C98.6363 102.59 98.3638 102.647 98.1128 102.758C97.8582 102.87 97.5929 103.067 97.3168 103.343L96.6104 102.637C96.9797 102.267 97.349 102.002 97.7255 101.841C98.102 101.679 98.5036 101.597 98.9268 101.597C99.4933 101.597 100.013 101.737 100.479 102.013C100.946 102.289 101.318 102.662 101.595 103.131C101.871 103.598 102.011 104.114 102.011 104.68C102.011 105.247 101.871 105.767 101.595 106.23C101.315 106.696 100.946 107.069 100.479 107.345C100.013 107.621 99.4969 107.761 98.9268 107.761V107.768Z" fill="#272727"/>
<path d="M104.075 110.558H103.082C103.082 106.567 103.086 104.512 103.093 104.397C103.147 103.87 103.315 103.397 103.595 102.974C103.878 102.551 104.24 102.214 104.688 101.966C105.137 101.719 105.628 101.593 106.162 101.593C106.729 101.593 107.249 101.733 107.715 102.009C108.181 102.285 108.554 102.658 108.83 103.124C109.106 103.591 109.246 104.107 109.246 104.673C109.246 105.24 109.106 105.76 108.83 106.223C108.55 106.689 108.181 107.062 107.715 107.338C107.249 107.614 106.732 107.754 106.162 107.754C105.675 107.754 105.226 107.65 104.81 107.442C104.394 107.234 104.151 107.083 104.072 106.986V110.554L104.075 110.558ZM106.166 106.764C106.549 106.764 106.901 106.671 107.216 106.481C107.532 106.294 107.787 106.04 107.973 105.724C108.16 105.409 108.256 105.057 108.256 104.673C108.256 104.29 108.163 103.938 107.973 103.623C107.787 103.307 107.532 103.053 107.216 102.866C106.901 102.68 106.549 102.583 106.166 102.583C105.782 102.583 105.431 102.676 105.115 102.866C104.8 103.056 104.545 103.307 104.359 103.623C104.172 103.938 104.075 104.29 104.075 104.673C104.075 105.057 104.169 105.409 104.359 105.724C104.545 106.04 104.8 106.294 105.115 106.481C105.431 106.667 105.782 106.764 106.166 106.764Z" fill="#272727"/>
<path d="M115.765 107.675C115.098 107.675 114.539 107.539 114.087 107.27C113.635 107.001 113.273 106.639 113.001 106.187C112.728 105.735 112.596 105.272 112.588 104.799C112.441 104.846 112.101 104.867 111.57 104.867L111.391 104.86V107.675H110.397V101.694H111.391V103.87H112.058C112.427 103.87 112.76 103.781 113.058 103.601C113.359 103.422 113.6 103.182 113.779 102.877C113.958 102.576 114.048 102.182 114.048 101.694H115.048C115.048 102.533 114.822 103.225 114.367 103.77C114.116 104.068 113.858 104.294 113.582 104.444L113.589 104.677C113.589 105.05 113.678 105.387 113.858 105.688C114.037 105.99 114.277 106.233 114.582 106.413C114.883 106.592 115.278 106.682 115.758 106.682V107.675H115.765Z" fill="#272727"/>
<path d="M122.201 107.675H121.208V107.097C121.162 107.151 120.964 107.259 120.609 107.424C120.254 107.588 119.874 107.671 119.465 107.671C119.057 107.671 118.677 107.588 118.322 107.424C117.967 107.259 117.665 107.029 117.411 106.739C116.955 106.229 116.729 105.627 116.729 104.935V101.686H117.723V104.935C117.723 105.412 117.895 105.824 118.236 106.165C118.576 106.506 118.985 106.678 119.465 106.678C119.724 106.678 119.964 106.627 120.19 106.52C120.416 106.416 120.606 106.273 120.767 106.09C121.061 105.763 121.208 105.38 121.208 104.939V101.69H122.201V107.671V107.675Z" fill="#272727"/>
<path d="M128.918 107.675H127.924V104.86H124.597V107.675H123.604V101.694H124.597V103.87H127.924V101.694H128.918V107.675Z" fill="#272727"/>
<path d="M133.235 110.558C132.844 110.558 132.474 110.49 132.127 110.35C131.782 110.21 131.427 109.974 131.069 109.64L131.775 108.941C132.234 109.357 132.718 109.565 133.235 109.565C133.604 109.565 133.938 109.475 134.235 109.296C134.533 109.117 134.777 108.876 134.956 108.572C135.135 108.27 135.225 107.937 135.225 107.571V106.947C135.024 107.116 134.744 107.277 134.386 107.431C134.027 107.585 133.643 107.664 133.235 107.664C132.826 107.664 132.435 107.585 132.076 107.431C131.718 107.277 131.399 107.062 131.126 106.793C130.538 106.205 130.244 105.499 130.244 104.674C130.244 104.125 130.38 103.627 130.649 103.171C130.918 102.716 131.28 102.357 131.732 102.085C132.184 101.816 132.686 101.68 133.238 101.68C133.704 101.68 134.135 101.777 134.536 101.974C134.934 102.171 135.271 102.436 135.551 102.777C135.763 103.039 135.931 103.329 136.05 103.652C136.171 103.971 136.229 104.312 136.229 104.674V107.575C136.229 107.847 136.189 108.12 136.114 108.385C135.92 109.034 135.562 109.561 135.028 109.959C134.497 110.361 133.902 110.562 133.238 110.562L133.235 110.558ZM133.235 106.671C133.529 106.671 133.805 106.61 134.059 106.492C134.314 106.373 134.536 106.209 134.726 105.997C134.845 105.879 134.952 105.714 135.053 105.502C135.171 105.244 135.232 104.968 135.232 104.674C135.232 104.304 135.142 103.971 134.963 103.67C134.784 103.369 134.544 103.125 134.242 102.945C133.941 102.766 133.608 102.677 133.242 102.677C132.876 102.677 132.539 102.766 132.238 102.945C131.937 103.125 131.693 103.365 131.514 103.67C131.334 103.971 131.245 104.308 131.245 104.674C131.245 104.968 131.306 105.244 131.427 105.502C131.521 105.714 131.628 105.879 131.754 105.997C131.94 106.209 132.163 106.373 132.417 106.492C132.672 106.61 132.948 106.671 133.245 106.671H133.235Z" fill="#272727"/>
<path d="M142.974 107.675H141.981V107.097C141.934 107.151 141.737 107.259 141.382 107.424C141.027 107.588 140.647 107.671 140.238 107.671C139.829 107.671 139.449 107.588 139.094 107.424C138.739 107.259 138.438 107.029 138.183 106.739C137.728 106.229 137.502 105.627 137.502 104.935V101.686H138.495V104.935C138.495 105.412 138.667 105.824 139.008 106.165C139.349 106.506 139.757 106.678 140.238 106.678C140.496 106.678 140.736 106.627 140.962 106.52C141.188 106.416 141.378 106.273 141.54 106.09C141.834 105.763 141.981 105.38 141.981 104.939V101.69H142.974V107.671V107.675Z" fill="#272727"/>
<path d="M149.74 107.675C149.073 107.675 148.514 107.539 148.062 107.27C147.61 107.001 147.248 106.639 146.975 106.187C146.703 105.735 146.57 105.272 146.563 104.799C146.416 104.846 146.075 104.867 145.545 104.867L145.365 104.86V107.675H144.372V101.694H145.365V103.87H146.032C146.402 103.87 146.735 103.781 147.033 103.601C147.334 103.422 147.574 103.182 147.753 102.877C147.933 102.576 148.022 102.182 148.022 101.694H149.023C149.023 102.533 148.797 103.225 148.342 103.77C148.091 104.068 147.832 104.294 147.556 104.444L147.563 104.677C147.563 105.05 147.653 105.387 147.832 105.688C148.012 105.99 148.252 106.233 148.557 106.413C148.858 106.592 149.252 106.682 149.733 106.682V107.675H149.74Z" fill="#272727"/>
<path d="M156.073 107.675C155.406 107.675 154.847 107.539 154.395 107.27C153.943 107.001 153.581 106.639 153.308 106.187C153.036 105.735 152.903 105.272 152.896 104.799C152.749 104.846 152.408 104.867 151.878 104.867L151.698 104.86V107.675H150.705V101.694H151.698V103.87H152.365C152.735 103.87 153.068 103.781 153.366 103.601C153.667 103.422 153.907 103.182 154.086 102.877C154.266 102.576 154.355 102.182 154.355 101.694H155.356C155.356 102.533 155.13 103.225 154.675 103.77C154.424 104.068 154.165 104.294 153.889 104.444L153.896 104.677C153.896 105.05 153.986 105.387 154.165 105.688C154.345 105.99 154.585 106.233 154.89 106.413C155.191 106.592 155.585 106.682 156.066 106.682V107.675H156.073Z" fill="#272727"/>
<path d="M160.125 107.768C159.559 107.768 159.039 107.628 158.576 107.352C158.113 107.076 157.737 106.703 157.461 106.237C157.181 105.771 157.045 105.255 157.045 104.692C157.045 104.129 157.185 103.605 157.461 103.139C157.737 102.673 158.11 102.3 158.576 102.02C159.042 101.741 159.559 101.604 160.125 101.604C160.652 101.604 161.136 101.726 161.581 101.97C162.026 102.214 162.388 102.54 162.667 102.953C162.951 103.365 163.123 103.835 163.187 104.355L163.195 104.692L163.184 105.183H158.088C158.149 105.567 158.372 105.929 158.755 106.269C159.139 106.61 159.594 106.779 160.122 106.779C160.649 106.779 161.129 106.578 161.599 106.176L162.291 106.883C161.922 107.205 161.567 107.435 161.222 107.567C160.878 107.704 160.509 107.768 160.122 107.768H160.125ZM162.162 104.19C162.101 103.81 161.879 103.447 161.495 103.107C161.111 102.766 160.656 102.594 160.129 102.594C159.602 102.594 159.146 102.766 158.763 103.107C158.379 103.447 158.157 103.81 158.096 104.19H162.165H162.162Z" fill="#272727"/>
<path d="M164.883 107.674C164.711 107.674 164.564 107.613 164.446 107.495C164.324 107.373 164.267 107.23 164.267 107.058C164.267 106.886 164.328 106.739 164.446 106.62C164.568 106.498 164.711 106.441 164.883 106.441C165.055 106.441 165.202 106.502 165.321 106.62C165.443 106.742 165.5 106.886 165.5 107.058C165.5 107.23 165.439 107.377 165.321 107.495C165.199 107.617 165.055 107.674 164.883 107.674ZM165.378 105.964H164.385V98.2976H165.378V105.964Z" fill="#272727"/>
</svg>
