<svg width="16" height="15" viewBox="0 0 16 15" fill="none" xmlns="http://www.w3.org/2000/svg">
<path d="M9.28277 8.92853C7.66269 8.94225 6.23374 9.92429 5.65157 11.4268C5.49377 11.8325 5.42027 12.2559 5.40067 12.6901C5.39675 12.7626 5.3644 12.8341 5.34676 12.9057C5.26738 12.8743 5.17329 12.8596 5.11056 12.8077C4.77048 12.5186 4.55094 12.1442 4.39608 11.7296C4.37746 11.6767 4.3608 11.6237 4.33532 11.5502C4.27652 11.5679 4.21967 11.5816 4.16577 11.6022C3.77863 11.7423 3.38268 11.8374 2.96713 11.8041C2.68584 11.7806 2.62606 11.708 2.66624 11.4297C2.72603 11.023 2.90342 10.6623 3.12394 10.3212C3.15628 10.2703 3.18961 10.2193 3.21607 10.1781C2.99849 9.99878 2.77699 9.84588 2.59176 9.65575C2.42612 9.48619 2.29381 9.28038 2.16248 9.08142C2.12622 9.02556 2.13994 8.93539 2.13112 8.8609C2.19972 8.85698 2.27029 8.83738 2.33595 8.85012C4.52741 9.27646 6.58068 7.8671 6.94625 5.66584C7.13443 4.53679 6.79336 3.55475 6.0289 2.71286C5.59472 2.23556 5.07332 1.90919 4.43823 1.77198C3.91781 1.66025 3.41404 1.72788 2.98183 1.92781C2.98183 1.92781 2.9815 1.92814 2.98085 1.92879C0.242502 4.39076 -0.289682 8.47965 1.68812 11.5532C1.71948 11.6022 1.75183 11.6502 1.78417 11.6982C1.8567 11.8041 1.9302 11.908 2.00763 12.0109C2.04487 12.0609 2.08407 12.1109 2.12328 12.1608L2.13406 12.1746C2.14288 12.1853 2.15072 12.1961 2.16052 12.2059C2.18992 12.2432 2.21834 12.2784 2.24873 12.3137C2.27225 12.3421 2.29577 12.3706 2.32125 12.399C2.33792 12.4186 2.35556 12.4392 2.37418 12.4598C2.39182 12.4794 2.40848 12.499 2.42612 12.5176C2.44278 12.5372 2.46043 12.5568 2.47905 12.5754C2.49375 12.5921 2.50943 12.6087 2.52511 12.6254C2.52707 12.6274 2.53001 12.6293 2.53099 12.6323C2.56529 12.6685 2.5996 12.7048 2.6339 12.741C2.6731 12.7822 2.71329 12.8224 2.75445 12.8626C5.30854 15.3686 9.32981 15.7283 12.2965 13.6486C12.6905 13.1399 12.861 12.4627 12.7346 11.7541C12.4504 10.1507 10.9401 8.91285 9.28375 8.92755L9.28277 8.92853Z" fill="#E6352C"/>
<path d="M13.8744 2.83731C11.9535 0.417489 8.84075 -0.498886 6.03674 0.259697C7.08837 0.676231 7.91262 1.37405 8.53399 2.32081C9.01913 3.06175 9.32197 3.86149 9.39352 4.73278C10.0012 4.42406 10.6568 4.25745 11.3419 4.18394C11.878 4.12709 11.9701 4.25744 11.7977 4.77591C11.5585 5.49431 11.1528 6.10196 10.6706 6.6606C10.6676 6.66158 10.6666 6.66256 10.6647 6.66354C11.1655 6.77919 11.6438 6.99187 12.1005 7.28197C13.353 8.07976 14.1851 9.19999 14.5291 10.6535C14.5605 10.7877 14.587 10.921 14.6056 11.0543C15.9816 8.49531 15.7944 5.25615 13.8735 2.83633L13.8744 2.83731Z" fill="#E6352C"/>
</svg>
